<svg width="18" height="16" viewBox="0 0 18 16" fill="none" xmlns="http://www.w3.org/2000/svg">
<path d="M9.07202 15.4618L9.10658 15.4408C10.1439 14.8107 12.7732 12.8368 14.8228 10.4058C15.8469 9.19103 16.7039 7.88813 17.156 6.60473C17.6057 5.32833 17.6446 4.10594 17.0929 2.995326L17.0927 2.9949C16.5461 1.89231 15.8943 1.25267 15.2317 0.898534C14.5672 0.543363 13.8483 0.452268 13.1307 0.521394C11.6896 0.660211 10.3293 1.43733 9.66016 1.86854C9.47395 2.015 9.24349 2.09404 9.00698 2.09404C8.77031 2.09404 8.53969 2.01489 8.35342 1.86824C7.68215 1.43378 6.36815 0.659699 4.95171 0.521329C4.24735 0.452521 3.53248 0.542626 2.85703 0.899619C2.18219 1.25629 1.5065 1.90061 0.915367 3.00798L9.07202 15.4618ZM9.07202 15.4618L9.04128 15.4881M9.07202 15.4618L9.04128 15.4881M9.04128 15.4881C9.03333 15.4949 9.02123 15.5 9.00698 15.5C8.99273 15.5 8.98063 15.4949 8.97268 15.4881L8.95941 15.4767M9.04128 15.4881L8.95941 15.4767M8.95941 15.4767L8.94539 15.4663M8.95941 15.4767L8.94539 15.4663M8.94539 15.4663C8.008 14.7721 5.35131 12.7477 3.25641 10.3042M8.94539 15.4663L3.25641 10.3042M3.25641 10.3042C2.20791 9.08131 1.3238 7.78024 0.856159 6.51173M3.25641 10.3042L0.856159 6.51173M0.856159 6.51173C0.391238 5.2506 0.35171 4.06581 0.915219 3.00826L0.856159 6.51173Z" fill="white" stroke="#FF0000"/>
</svg>
