<svg width="47" height="49" viewBox="0 0 47 49" fill="none" xmlns="http://www.w3.org/2000/svg">
<path d="M21.1746 1.01249C22.3686 -0.337497 24.4749 -0.337497 25.6689 1.01249L28.4288 4.13291C29.1515 4.95011 30.2608 5.31051 31.3258 5.07421L35.3927 4.17191C37.1522 3.78159 38.8563 5.01971 39.0287 6.81371L39.4274 10.9604C39.5318 12.0462 40.2173 12.9899 41.2178 13.4247L45.0384 15.0852C46.6913 15.8036 47.3422 17.8069 46.4272 19.3596L44.3123 22.9487C43.7585 23.8885 43.7585 25.0549 44.3123 25.9947L46.4272 29.5838C47.3422 31.1365 46.6913 33.1398 45.0384 33.8582L41.2178 35.5187C40.2173 35.9535 39.5318 36.8972 39.4274 37.983L39.0287 42.1297C38.8563 43.9237 37.1522 45.1618 35.3927 44.7715L31.3258 43.8692C30.2608 43.6329 29.1515 43.9933 28.4288 44.8105L25.6689 47.9309C24.4749 49.2809 22.3686 49.2809 21.1746 47.9309L18.4147 44.8105C17.692 43.9933 16.5827 43.6329 15.5177 43.8692L11.4508 44.7715C9.69127 45.1618 7.98717 43.9237 7.81477 42.1297L7.41607 37.983C7.31177 36.8972 6.62617 35.9535 5.62567 35.5187L1.8051 33.8582C0.152223 33.1398 -0.498687 31.1365 0.416273 29.5838L2.53116 25.9947C3.08496 25.0549 3.08496 23.8885 2.53116 22.9487L0.416273 19.3596C-0.498687 17.8069 0.152223 15.8036 1.8051 15.0852L5.62567 13.4247C6.62617 12.9899 7.31177 12.0462 7.41607 10.9604L7.81477 6.81371C7.98717 5.01971 9.69127 3.78159 11.4508 4.17191L15.5177 5.07421C16.5827 5.31051 17.692 4.95011 18.4147 4.13291L21.1746 1.01249Z" fill="#F45580"/>
</svg>
